# xmcd
#
# Track frame offsets: 
#        182
#        13150
#        30655
#        44195
#        62347
#        76005
#        90880
#        109742
#        125315
#        137687
#        155007
#
# Disc length: 2283 seconds
#
# Revision: 3
# Processed by: cddbd v1.5.2PL0 Copyright (c) Steve Scherf et al.
# Submitted via: ExactAudioCopyFreeDBPlugin 1.0
#
DISCID=8208e90b
DTITLE=Brett James - Brett James
DYEAR=1995
DGENRE=Country
TTITLE0=Wake Up And Smell The Whiskey
TTITLE1=Many Tears Ago
TTITLE2=Worth The Fall
TTITLE3=She's Killin Me
TTITLE4=If I Could See Love
TTITLE5=Female Bonding
TTITLE6=Dark Side Of The Moon
TTITLE7=Just Like We Never Happened
TTITLE8=Thrill Of The Chase
TTITLE9=The Way That You Love
TTITLE10=Enjoy The Ride
EXTD=
EXTT0=
EXTT1=
EXTT2=
EXTT3=
EXTT4=
EXTT5=
EXTT6=
EXTT7=
EXTT8=
EXTT9=
EXTT10=
PLAYORDER=
